<svg width="42" height="42" viewBox="0 0 42 42" fill="none" xmlns="http://www.w3.org/2000/svg">
<rect width="42" height="42" rx="12" fill="#26BD62" fill-opacity="0.1"/>
<rect x="0.5" y="0.5" width="41" height="41" rx="11.5" stroke="#26BD62" stroke-opacity="0.2"/>
<path d="M23 26.5C23 28.433 24.567 30 26.5 30C28.433 30 30 28.433 30 26.5C30 24.567 28.433 23 26.5 23C24.567 23 23 24.567 23 26.5ZM23 26.5L22.3416 26.1707C21.4971 25.7484 20.5029 25.7484 19.6584 26.1707L19 26.5M11 20H31M13 20L13.6138 17.5448C14.1595 15.3621 14.4323 14.2708 15.2461 13.6354C16.0599 13 17.1848 13 19.4347 13H22.5653C24.8152 13 25.9401 13 26.7539 13.6354C27.5677 14.2708 27.8405 15.3621 28.3862 17.5448L29 20M19 26.5C19 28.433 17.433 30 15.5 30C13.567 30 12 28.433 12 26.5C12 24.567 13.567 23 15.5 23C17.433 23 19 24.567 19 26.5Z" stroke="#26BD62" stroke-width="1.5" stroke-linecap="round" stroke-linejoin="round"/>
</svg>
