<svg width="42" height="42" viewBox="0 0 42 42" fill="none" xmlns="http://www.w3.org/2000/svg">
<rect width="42" height="42" rx="12" fill="#26BD62" fill-opacity="0.1"/>
<rect x="0.5" y="0.5" width="41" height="41" rx="11.5" stroke="#26BD62" stroke-opacity="0.2"/>
<path d="M24.1853 17.781L17.8524 24.181M21 31C18.4627 30.489 16.1792 29.105 14.5382 27.0837C12.8972 25.0624 12.0002 22.5288 12 19.9143V12.819L21 11L30 12.819V19.9143C29.9998 22.5288 29.1028 25.0624 27.4618 27.0837C25.8208 29.105 23.5373 30.489 21 31ZM25.4953 21C25.4953 23.509 23.4827 25.5429 21 25.5429C18.5173 25.5429 16.5047 23.509 16.5047 21C16.5047 18.491 18.5173 16.4571 21 16.4571C23.4827 16.4571 25.4953 18.491 25.4953 21Z" stroke="#26BD62" stroke-width="1.5" stroke-linecap="round" stroke-linejoin="round"/>
</svg>
