<svg width="42" height="42" viewBox="0 0 42 42" fill="none" xmlns="http://www.w3.org/2000/svg">
<g id="Frame 2565">
<g id="Rectangle 84">
<rect width="42" height="42" rx="12" fill="#26BD62" fill-opacity="0.1"/>
<rect x="0.5" y="0.5" width="41" height="41" rx="11.5" stroke="#26BD62" stroke-opacity="0.2"/>
</g>
<path id="Heart" fill-rule="evenodd" clip-rule="evenodd" d="M26.5206 11.3027C28.1348 11.8047 29.4771 12.9577 30.2354 14.4938C31.122 16.3556 31.2427 18.5008 30.5707 20.4536C29.9521 22.2513 28.938 23.8809 27.6059 25.2178C26.7325 26.1155 25.7914 26.942 24.7912 27.6898L24.7383 27.7347C24.406 27.9584 23.9591 27.8706 23.7324 27.537C23.6171 27.3759 23.5708 27.174 23.6041 26.9776C23.6373 26.7811 23.7473 26.6067 23.9088 26.4942C24.8474 25.7871 25.7323 25.0088 26.5559 24.1661C27.7421 22.9987 28.648 21.5683 29.203 19.9861C29.7368 18.4096 29.6288 16.6809 28.903 15.186C28.3189 14.01 27.2899 13.1272 26.053 12.741C24.4753 12.2384 22.7565 12.543 21.4382 13.559C21.1762 13.7567 20.818 13.7567 20.5559 13.559C19.2382 12.5416 17.5187 12.2368 15.9412 12.741C14.696 13.1186 13.6566 13.9988 13.0647 15.177C12.3553 16.6708 12.2538 18.3896 12.7823 19.9592C13.3397 21.5376 14.2453 22.9645 15.4294 24.1301C17.179 25.8392 19.1083 27.3465 21.1824 28.6246C21.4461 28.8111 21.5621 29.1493 21.4697 29.4625C21.3773 29.7757 21.0974 29.9927 20.7765 30C20.6318 30.0008 20.4903 29.957 20.3706 29.8741C18.2101 28.5429 16.2008 26.9723 14.3794 25.1908C13.0399 23.8583 12.0221 22.2276 11.4058 20.4266C10.757 18.4765 10.8902 16.3444 11.7764 14.4938C12.5347 12.9577 13.8769 11.8047 15.4911 11.3027C17.3471 10.7187 19.3607 10.9878 21.0059 12.0398C22.6511 10.9878 24.6647 10.7187 26.5206 11.3027ZM25.7971 18.1883C25.7602 17.3576 25.2172 16.6391 24.4383 16.3905C24.1487 16.2063 24.02 15.8444 24.1267 15.514C24.2334 15.1836 24.5479 14.9702 24.8883 14.9972C26.2039 15.4203 27.1404 16.6085 27.2618 18.0086C27.2867 18.2043 27.2335 18.4021 27.1141 18.5575C26.9946 18.713 26.819 18.8131 26.6265 18.8355C26.2224 18.8887 25.8519 18.5997 25.7971 18.1883Z" fill="#26BD62"/>
</g>
</svg>
