<svg width="42" height="42" viewBox="0 0 42 42" fill="none" xmlns="http://www.w3.org/2000/svg">
<g id="Frame 2562">
<g id="Rectangle 84">
<rect width="42" height="42" rx="12" fill="#26BD62" fill-opacity="0.1"/>
<rect x="0.5" y="0.5" width="41" height="41" rx="11.5" stroke="#26BD62" stroke-opacity="0.2"/>
</g>
<path id="Vector" d="M26.5555 13.6154L30.3209 15.9231C31.7517 16.7692 32.2036 18.6923 31.2999 20.1538L26.5555 28.3077M31.0739 21L31.4505 21.5385C32.4295 22.9231 32.053 24.8462 30.6974 25.8462L26.4048 28.9231M16.0123 14.0769V15.6154M23.5431 26.3846V27.9231M19.0246 24.0769H20.5308M19.7777 21.7692V23.3077M23.5431 31H16.0123C14.3555 31 13 29.6154 13 27.9231V14.0769C13 12.3846 14.3555 11 16.0123 11H23.5431C25.1999 11 26.5555 12.3846 26.5555 14.0769V27.9231C26.5555 29.6154 25.1999 31 23.5431 31ZM17.8197 21.4615C18.1963 21.8462 18.7987 21.8462 19.1753 21.4615L19.7777 21L20.3802 21.4615C20.7567 21.8462 21.3592 21.8462 21.7357 21.4615C22.1123 21.0769 22.1123 20.3846 21.7357 20L21.1333 19.3846L19.7777 17.9231L18.4222 19.3846L17.8197 20C17.4432 20.3846 17.4432 21.0769 17.8197 21.4615Z" stroke="#26BD62" stroke-width="1.5" stroke-linecap="round" stroke-linejoin="round"/>
</g>
</svg>
