<svg width="42" height="42" viewBox="0 0 42 42" fill="none" xmlns="http://www.w3.org/2000/svg">
<g id="Frame 2559">
<g id="Rectangle 84">
<rect width="42" height="42" rx="12" fill="#26BD62" fill-opacity="0.1"/>
<rect x="0.5" y="0.5" width="41" height="41" rx="11.5" stroke="#26BD62" stroke-opacity="0.2"/>
</g>
<path id="Vector" d="M15.6 16.5V25.5M25.05 18.75L26.4 17.4M19.2 24.6L20.55 23.25M20.55 18.75L19.2 17.4M26.4 24.6L25.05 23.25M12 21C12 16.7574 12 14.636 13.318 13.318C14.636 12 16.7574 12 21 12C25.2426 12 27.364 12 28.682 13.318C30 14.636 30 16.7574 30 21C30 25.2426 30 27.364 28.682 28.682C27.364 30 25.2426 30 21 30C16.7574 30 14.636 30 13.318 28.682C12 27.364 12 25.2426 12 21ZM20.1 21C20.1 19.5088 21.3088 18.3 22.8 18.3C24.2912 18.3 25.5 19.5088 25.5 21C25.5 22.4912 24.2912 23.7 22.8 23.7C21.3088 23.7 20.1 22.4912 20.1 21Z" stroke="#26BD62" stroke-width="1.5" stroke-linecap="round" stroke-linejoin="round"/>
</g>
</svg>
