<svg width="42" height="42" viewBox="0 0 42 42" fill="none" xmlns="http://www.w3.org/2000/svg">
<g id="Frame 2564">
<g id="Rectangle 84">
<rect width="42" height="42" rx="12" fill="#26BD62" fill-opacity="0.1"/>
<rect x="0.5" y="0.5" width="41" height="41" rx="11.5" stroke="#26BD62" stroke-opacity="0.2"/>
</g>
<path id="Vector" d="M20.9996 11.0499C19.0219 11.0499 17.0886 11.635 15.4442 12.731C13.7997 13.8271 12.518 15.3849 11.7612 17.2076C11.0043 19.0303 10.8063 21.0361 11.1921 22.971C11.578 24.906 12.5304 26.6833 13.9288 28.0783C15.3273 29.4734 17.1091 30.4235 19.0488 30.8083C20.9885 31.1933 22.9992 30.9956 24.8264 30.2406C26.6536 29.4857 28.2153 28.2071 29.3141 26.5667C30.4128 24.9263 30.9993 22.9979 30.9993 21.025M25.3393 16.6459L30.9991 11M30.9991 11H26.4702M30.9991 11L31 15.5187" stroke="#26BD62" stroke-width="1.5" stroke-linecap="round" stroke-linejoin="round"/>
<path id="Vector_2" d="M21 25.25C22.1046 25.25 23 24.4105 23 23.375C23 22.3395 22.1046 21.5 21 21.5C19.8954 21.5 19 20.6605 19 19.625C19 18.5895 19.8954 17.75 21 17.75M21 25.25C19.8954 25.25 19 24.4105 19 23.375M21 25.25V26M21 17V17.75M21 17.75C22.1046 17.75 23 18.5895 23 19.625" stroke="#26BD62" stroke-width="1.5" stroke-linecap="round" stroke-linejoin="round"/>
</g>
</svg>
