<svg width="42" height="42" viewBox="0 0 42 42" fill="none" xmlns="http://www.w3.org/2000/svg">
<g id="Frame 2559">
<g id="Rectangle 84">
<rect width="42" height="42" rx="12" fill="#26BD62" fill-opacity="0.1"/>
<rect x="0.5" y="0.5" width="41" height="41" rx="11.5" stroke="#26BD62" stroke-opacity="0.2"/>
</g>
<path id="Vector" d="M31.758 17.25C31.6648 14.9096 31.3639 13.4747 30.3941 12.4645C28.9883 11 26.7254 11 22.2 11H18.6C14.0745 11 11.8118 11 10.4059 12.4645C9 13.9289 9 16.286 9 21C9 25.714 9 28.0711 10.4059 29.5355C11.8118 31 14.0745 31 18.6 31H22.2C26.7254 31 28.9883 31 30.3941 29.5355C31.3639 28.5254 31.6648 27.0904 31.758 24.75M28.1894 21H28.2002M17 19.9418V24M20 18V24M14 22.0863V24M31.6 17.25H28.477C26.3358 17.25 24.6 18.9289 24.6 21C24.6 23.0711 26.3358 24.75 28.477 24.75H31.6C31.7 24.75 31.75 24.75 31.7922 24.7474C32.4394 24.7063 32.9548 24.2077 32.9972 23.5817C33 23.5409 33 23.4925 33 23.3959V18.6041C33 18.5075 33 18.4591 32.9972 18.4183C32.9548 17.7923 32.4394 17.2937 31.7922 17.2527C31.75 17.25 31.7 17.25 31.6 17.25Z" stroke="#26BD62" stroke-width="1.5" stroke-linecap="round" stroke-linejoin="round"/>
</g>
</svg>
