<svg width="42" height="42" viewBox="0 0 42 42" fill="none" xmlns="http://www.w3.org/2000/svg">
<rect width="42" height="42" rx="12" fill="#26BD62" fill-opacity="0.1"/>
<rect x="0.5" y="0.5" width="41" height="41" rx="11.5" stroke="#26BD62" stroke-opacity="0.2"/>
<path d="M28.1199 17.5001V21.2262M30 19.3631H26.2415M19.5493 23.5744C16.0169 23.5744 13 24.1143 13 26.2774C13 28.4397 15.9976 29 19.5493 29C23.0817 29 26.0986 28.4592 26.0986 26.297C26.0986 24.1347 23.101 23.5744 19.5493 23.5744ZM19.5493 20.4892C21.8797 20.4892 23.747 18.6001 23.747 16.2446C23.747 13.8881 21.8797 12 19.5493 12C17.2198 12 15.3516 13.8881 15.3516 16.2446C15.3516 18.6001 17.2198 20.4892 19.5493 20.4892Z" stroke="#26BD62" stroke-width="1.5" stroke-linecap="round" stroke-linejoin="round"/>
</svg>
