<svg width="42" height="42" viewBox="0 0 42 42" fill="none" xmlns="http://www.w3.org/2000/svg">
<g id="Frame 2563">
<g id="Rectangle 84">
<rect width="42" height="42" rx="12" fill="#26BD62" fill-opacity="0.1"/>
<rect x="0.5" y="0.5" width="41" height="41" rx="11.5" stroke="#26BD62" stroke-opacity="0.2"/>
</g>
<path id="Vector" d="M17.8 20.2095H31M20.3201 24.2655H21.6501M23.75 24.2655H27.02M20.74 26.7656H26.66C26.57 26.8459 26.48 26.9162 26.39 26.9965L22.12 30.2093C20.71 31.2636 18.41 31.2636 16.99 30.2093L12.71 26.9965C11.77 26.2937 11 24.7375 11 23.5628V16.123C11 14.8981 11.93 13.5427 13.07 13.1109L18.05 11.2334C18.87 10.9222 20.23 10.9222 21.05 11.2334L26.02 13.1109C26.97 13.4724 27.78 14.4764 28.03 15.5005H20.73C20.51 15.5005 20.31 15.5105 20.12 15.5105C18.27 15.621 17.79 16.2937 17.79 18.4121V23.8639C17.8 26.1731 18.39 26.7656 20.74 26.7656ZM31 18.402V23.9743C30.98 26.2032 30.37 26.7553 28.06 26.7553H20.7401C18.3901 26.7553 17.8 26.1631 17.8 23.8438V18.392C17.8 16.2835 18.2801 15.6108 20.1301 15.4903C20.3201 15.4903 20.5201 15.4803 20.7401 15.4803H28.06C30.41 15.4904 31 16.0727 31 18.402Z" stroke="#26BD62" stroke-width="1.5" stroke-linecap="round" stroke-linejoin="round"/>
</g>
</svg>
