<svg width="42" height="42" viewBox="0 0 42 42" fill="none" xmlns="http://www.w3.org/2000/svg">
<g id="Frame 2565">
<g id="Rectangle 84">
<rect width="42" height="42" rx="12" fill="#26BD62" fill-opacity="0.1"/>
<rect x="0.5" y="0.5" width="41" height="41" rx="11.5" stroke="#26BD62" stroke-opacity="0.2"/>
</g>
<g id="Vector">
<path d="M23.0036 14.75C23.1669 14.75 23.3235 14.6842 23.439 14.5669C23.5544 14.4497 23.6193 14.2908 23.6193 14.125C23.6193 13.9592 23.5544 13.8003 23.439 13.6831C23.3235 13.5658 23.1669 13.5 23.0036 13.5H19.3096C19.1464 13.5 18.9898 13.5658 18.8743 13.6831C18.7588 13.8003 18.694 13.9592 18.694 14.125C18.694 14.2908 18.7588 14.4497 18.8743 14.5669C18.9898 14.6842 19.1464 14.75 19.3096 14.75H23.0036Z" fill="#26BD62"/>
<path d="M27.3133 16.525V14.025C27.3165 13.6295 27.2427 13.2372 27.096 12.8707C26.9493 12.5043 26.7327 12.1709 26.4586 11.8897C26.1846 11.6086 25.8584 11.3852 25.499 11.2325C25.1395 11.0798 24.7539 11.0008 24.3642 11H17.949C17.1674 11.0017 16.4182 11.3176 15.8655 11.8787C15.3128 12.4398 15.0016 13.2003 15 13.9937V28.0062C15.0016 28.7997 15.3128 29.5602 15.8655 30.1213C16.4182 30.6824 17.1674 30.9983 17.949 31H24.3642C25.1459 30.9983 25.895 30.6824 26.4477 30.1213C27.0004 29.5602 27.3116 28.7997 27.3133 28.0062V27.975C28.4094 27.4877 29.3418 26.6867 29.9965 25.6699C30.6513 24.6532 31 23.4647 31 22.25C31 21.0353 30.6513 19.8468 29.9965 18.8301C29.3418 17.8133 28.4094 17.0123 27.3133 16.525ZM24.3642 29.75H17.949C17.4935 29.75 17.0566 29.5663 16.7344 29.2393C16.4123 28.9123 16.2313 28.4687 16.2313 28.0062V13.9937C16.2313 13.5313 16.4123 13.0877 16.7344 12.7607C17.0566 12.4337 17.4935 12.25 17.949 12.25H24.3642C24.8198 12.25 25.2567 12.4337 25.5788 12.7607C25.901 13.0877 26.0819 13.5313 26.0819 13.9937V16.125C25.6766 16.0423 25.2641 16.0004 24.8506 16C23.2353 15.9998 21.6857 16.6493 20.541 17.8063V17.25C20.541 17.0842 20.4761 16.9253 20.3606 16.8081C20.2452 16.6908 20.0886 16.625 19.9253 16.625C19.762 16.625 19.6054 16.6908 19.49 16.8081C19.3745 16.9253 19.3096 17.0842 19.3096 17.25V27.25C19.3096 27.4158 19.3745 27.5747 19.49 27.6919C19.6054 27.8092 19.762 27.875 19.9253 27.875C20.0886 27.875 20.2452 27.8092 20.3606 27.6919C20.4761 27.5747 20.541 27.4158 20.541 27.25V26.6938C21.6857 27.8507 23.2353 28.5002 24.8506 28.5C25.2495 28.4989 25.6474 28.4591 26.0388 28.3813C25.9548 28.7688 25.743 29.1156 25.4386 29.3645C25.1341 29.6133 24.7551 29.7493 24.3642 29.75ZM24.8506 27.25C23.97 27.2492 23.1057 27.0087 22.3478 26.5537C21.5898 26.0986 20.9659 25.4455 20.541 24.6625V19.8375C20.9602 19.0648 21.5734 18.4185 22.3182 17.9642C23.0631 17.5099 23.9131 17.2636 24.7819 17.2506C25.6508 17.2375 26.5076 17.4579 27.2654 17.8896C28.0232 18.3213 28.655 18.9489 29.0966 19.7086C29.5383 20.4682 29.7742 21.333 29.7802 22.2151C29.7863 23.0972 29.5623 23.9653 29.1311 24.7311C28.6999 25.497 28.0768 26.1334 27.325 26.5758C26.5733 27.0182 25.7196 27.2508 24.8506 27.25Z" fill="#26BD62"/>
<path d="M24.8506 20.375H26.0819C26.2452 20.375 26.4018 20.3092 26.5173 20.1919C26.6327 20.0747 26.6976 19.9158 26.6976 19.75C26.6976 19.5842 26.6327 19.4253 26.5173 19.3081C26.4018 19.1908 26.2452 19.125 26.0819 19.125H25.4663C25.4663 18.9592 25.4014 18.8003 25.286 18.6831C25.1705 18.5658 25.0139 18.5 24.8506 18.5C24.6873 18.5 24.5307 18.5658 24.4153 18.6831C24.2998 18.8003 24.235 18.9592 24.235 19.125V19.2375C23.8278 19.3875 23.4855 19.678 23.2679 20.0582C23.0503 20.4384 22.9713 20.8842 23.0446 21.3176C23.118 21.7509 23.339 22.1444 23.6692 22.4291C23.9993 22.7137 24.4175 22.8716 24.8506 22.875C25.0139 22.875 25.1705 22.9408 25.286 23.0581C25.4014 23.1753 25.4663 23.3342 25.4663 23.5C25.4663 23.6658 25.4014 23.8247 25.286 23.9419C25.1705 24.0592 25.0139 24.125 24.8506 24.125H23.6193C23.456 24.125 23.2994 24.1908 23.184 24.3081C23.0685 24.4253 23.0036 24.5842 23.0036 24.75C23.0036 24.9158 23.0685 25.0747 23.184 25.1919C23.2994 25.3092 23.456 25.375 23.6193 25.375H24.235C24.235 25.5408 24.2998 25.6997 24.4153 25.8169C24.5307 25.9342 24.6873 26 24.8506 26C25.0139 26 25.1705 25.9342 25.286 25.8169C25.4014 25.6997 25.4663 25.5408 25.4663 25.375V25.2625C25.8735 25.1125 26.2158 24.822 26.4333 24.4418C26.6509 24.0616 26.73 23.6158 26.6566 23.1824C26.5833 22.7491 26.3622 22.3556 26.0321 22.0709C25.7019 21.7863 25.2838 21.6284 24.8506 21.625C24.6873 21.625 24.5307 21.5592 24.4153 21.4419C24.2998 21.3247 24.235 21.1658 24.235 21C24.235 20.8342 24.2998 20.6753 24.4153 20.5581C24.5307 20.4408 24.6873 20.375 24.8506 20.375Z" fill="#26BD62"/>
</g>
</g>
</svg>
