<svg width="256" height="275" viewBox="0 0 256 275" fill="none" xmlns="http://www.w3.org/2000/svg">
<g opacity="0.78">
<g style="mix-blend-mode:screen" opacity="0.4" filter="url(#filter0_f_2426_200)">
<path d="M128.225 63.2803C170.539 63.2803 204.835 97.5758 204.835 139.89C204.835 182.205 170.539 216.5 128.225 216.5C85.9103 216.5 51.6147 182.205 51.6147 139.89C51.6147 97.5758 85.9103 63.2803 128.225 63.2803Z" fill="url(#paint0_radial_2426_200)" style="mix-blend-mode:screen"/>
</g>
<g style="mix-blend-mode:screen" opacity="0.4" filter="url(#filter1_f_2426_200)">
<path d="M127.5 34C146 34 161 80.3399 161 137.5C161 194.66 146 241 127.5 241C109 241 94 194.66 94 137.5C94 80.3399 109 34 127.5 34Z" fill="url(#paint1_radial_2426_200)" style="mix-blend-mode:screen"/>
</g>
<g style="mix-blend-mode:screen" filter="url(#filter2_f_2426_200)">
<path d="M9.01752 228.817C5.82888 224.554 56.7171 181.094 122.663 131.741C188.62 82.3882 244.669 45.8252 247.858 50.0885C251.047 54.3519 200.158 97.8118 134.213 147.177C68.2553 196.53 12.2062 233.081 9.01752 228.829L9.01752 228.817Z" fill="url(#paint2_radial_2426_200)" style="mix-blend-mode:screen"/>
</g>
<g style="mix-blend-mode:screen" opacity="0.5">
<path d="M122.71 80.0912C123.241 80.0912 123.667 80.5164 123.667 81.0478C123.667 81.5792 123.241 82.0044 122.71 82.0044C122.179 82.0044 121.753 81.5792 121.753 81.0478C121.753 80.5164 122.179 80.0912 122.71 80.0912Z" fill="url(#paint3_radial_2426_200)"/>
<path d="M125.32 163.208C125.911 163.208 126.395 163.692 126.395 164.283C126.395 164.873 125.911 165.358 125.32 165.358C124.73 165.358 124.246 164.873 124.246 164.283C124.246 163.692 124.73 163.208 125.32 163.208Z" fill="url(#paint4_radial_2426_200)"/>
<path d="M145.644 114.304C146.554 114.304 147.286 115.036 147.286 115.945C147.286 116.855 146.554 117.587 145.644 117.587C144.735 117.587 144.003 116.855 144.003 115.945C144.003 115.036 144.735 114.304 145.644 114.304Z" fill="url(#paint5_radial_2426_200)"/>
<path d="M136.268 80.6582C136.551 80.6582 136.787 80.8944 136.787 81.1779C136.787 81.4613 136.551 81.6975 136.268 81.6975C135.984 81.6975 135.748 81.4731 135.748 81.1779C135.748 80.8826 135.984 80.6582 136.268 80.6582Z" fill="url(#paint6_radial_2426_200)"/>
<path d="M114.514 124.957C115.577 124.957 116.439 125.819 116.439 126.893C116.439 127.968 115.577 128.818 114.514 128.818C113.451 128.818 112.577 127.956 112.577 126.893C112.577 125.831 113.439 124.957 114.514 124.957Z" fill="url(#paint7_radial_2426_200)"/>
<path d="M117.148 110.336C118.046 110.336 118.766 111.068 118.766 111.954C118.766 112.84 118.034 113.572 117.148 113.572C116.262 113.572 115.53 112.84 115.53 111.954C115.53 111.068 116.262 110.336 117.148 110.336Z" fill="url(#paint8_radial_2426_200)"/>
<path d="M136.185 87.2007C136.752 87.2007 137.213 87.6613 137.213 88.2282C137.213 88.795 136.752 89.2556 136.185 89.2556C135.618 89.2556 135.158 88.795 135.158 88.2282C135.158 87.6613 135.618 87.2007 136.185 87.2007Z" fill="url(#paint9_radial_2426_200)"/>
<path d="M127.02 154.185C127.611 154.185 128.095 154.67 128.095 155.26C128.095 155.851 127.611 156.335 127.02 156.335C126.43 156.335 125.946 155.851 125.946 155.26C125.946 154.67 126.43 154.185 127.02 154.185Z" fill="url(#paint10_radial_2426_200)"/>
<path d="M127.552 71.3167C128.025 71.3167 128.391 71.6946 128.391 72.1552C128.391 72.6158 128.013 72.9937 127.552 72.9937C127.092 72.9937 126.714 72.6158 126.714 72.1552C126.714 71.6946 127.092 71.3167 127.552 71.3167Z" fill="url(#paint11_radial_2426_200)"/>
<path d="M120.112 137.688C121.092 137.688 121.872 138.479 121.872 139.459C121.872 140.439 121.081 141.219 120.112 141.219C119.144 141.219 118.341 140.427 118.341 139.459C118.341 138.491 119.132 137.688 120.112 137.688Z" fill="url(#paint12_radial_2426_200)"/>
<path d="M135.973 113.879C138.182 113.879 139.965 115.662 139.965 117.871C139.965 120.079 138.182 121.862 135.973 121.862C133.765 121.862 131.981 120.079 131.981 117.871C131.981 115.662 133.765 113.879 135.973 113.879Z" fill="url(#paint13_radial_2426_200)"/>
<path d="M125.545 120.717C128.025 120.717 130.044 122.736 130.044 125.216C130.044 127.696 128.025 129.716 125.545 129.716C123.065 129.716 121.045 127.696 121.045 125.216C121.045 122.736 123.065 120.717 125.545 120.717Z" fill="url(#paint14_radial_2426_200)"/>
<path d="M142.716 137.038C143.483 137.038 144.097 137.652 144.097 138.419C144.097 139.187 143.483 139.801 142.716 139.801C141.948 139.801 141.334 139.187 141.334 138.419C141.334 137.652 141.948 137.038 142.716 137.038Z" fill="url(#paint15_radial_2426_200)"/>
<path d="M126.69 106.77C128.32 106.77 129.643 108.092 129.643 109.722C129.643 111.352 128.32 112.674 126.69 112.674C125.06 112.674 123.738 111.352 123.738 109.722C123.738 108.092 125.06 106.77 126.69 106.77Z" fill="url(#paint16_radial_2426_200)"/>
<path d="M131.58 141.821C132.454 141.821 133.162 142.529 133.162 143.403C133.162 144.277 132.454 144.986 131.58 144.986C130.706 144.986 129.997 144.277 129.997 143.403C129.997 142.529 130.706 141.821 131.58 141.821Z" fill="url(#paint17_radial_2426_200)"/>
<path d="M135.17 97.6759C136.587 97.6759 137.744 98.8214 137.744 100.25C137.744 101.679 136.587 102.825 135.17 102.825C133.753 102.825 132.595 101.668 132.595 100.25C132.595 98.8332 133.753 97.6759 135.17 97.6759Z" fill="url(#paint18_radial_2426_200)"/>
<path d="M126.726 90.2947C127.541 90.2947 128.19 90.956 128.19 91.7591C128.19 92.5622 127.541 93.2235 126.726 93.2235C125.911 93.2235 125.261 92.574 125.261 91.7591C125.261 90.9442 125.911 90.2947 126.726 90.2947Z" fill="url(#paint19_radial_2426_200)"/>
</g>
</g>
<defs>
<filter id="filter0_f_2426_200" x="17.6147" y="29.2803" width="221.22" height="221.22" filterUnits="userSpaceOnUse" color-interpolation-filters="sRGB">
<feFlood flood-opacity="0" result="BackgroundImageFix"/>
<feBlend mode="normal" in="SourceGraphic" in2="BackgroundImageFix" result="shape"/>
<feGaussianBlur stdDeviation="17" result="effect1_foregroundBlur_2426_200"/>
</filter>
<filter id="filter1_f_2426_200" x="60" y="0" width="135" height="275" filterUnits="userSpaceOnUse" color-interpolation-filters="sRGB">
<feFlood flood-opacity="0" result="BackgroundImageFix"/>
<feBlend mode="normal" in="SourceGraphic" in2="BackgroundImageFix" result="shape"/>
<feGaussianBlur stdDeviation="17" result="effect1_foregroundBlur_2426_200"/>
</filter>
<filter id="filter2_f_2426_200" x="0.875488" y="41.7505" width="255.125" height="195.415" filterUnits="userSpaceOnUse" color-interpolation-filters="sRGB">
<feFlood flood-opacity="0" result="BackgroundImageFix"/>
<feBlend mode="normal" in="SourceGraphic" in2="BackgroundImageFix" result="shape"/>
<feGaussianBlur stdDeviation="4" result="effect1_foregroundBlur_2426_200"/>
</filter>
<radialGradient id="paint0_radial_2426_200" cx="0" cy="0" r="1" gradientUnits="userSpaceOnUse" gradientTransform="translate(128.225 139.878) rotate(-90) scale(76.6099)">
<stop stop-color="#C6430B"/>
<stop offset="1" stop-color="#C6430B" stop-opacity="0"/>
</radialGradient>
<radialGradient id="paint1_radial_2426_200" cx="0" cy="0" r="1" gradientUnits="userSpaceOnUse" gradientTransform="translate(127.5 137.484) rotate(-90) scale(103.5 33.5)">
<stop stop-color="#C6430B"/>
<stop offset="1" stop-color="#C6430B" stop-opacity="0"/>
</radialGradient>
<radialGradient id="paint2_radial_2426_200" cx="0" cy="0" r="1" gradientUnits="userSpaceOnUse" gradientTransform="translate(129.097 140.095) rotate(143.19) scale(149.193 8.95156)">
<stop stop-color="#FF8A1B"/>
<stop offset="1" stop-color="#713D0C" stop-opacity="0"/>
</radialGradient>
<radialGradient id="paint3_radial_2426_200" cx="0" cy="0" r="1" gradientUnits="userSpaceOnUse" gradientTransform="translate(122.71 81.0478) rotate(-90) scale(0.956587)">
<stop offset="0.25" stop-color="#D13200"/>
<stop offset="1" stop-color="#A12600" stop-opacity="0"/>
</radialGradient>
<radialGradient id="paint4_radial_2426_200" cx="0" cy="0" r="1" gradientUnits="userSpaceOnUse" gradientTransform="translate(125.32 164.283) rotate(-90) scale(1.07468 1.07469)">
<stop offset="0.25" stop-color="#D13200"/>
<stop offset="1" stop-color="#A12600" stop-opacity="0"/>
</radialGradient>
<radialGradient id="paint5_radial_2426_200" cx="0" cy="0" r="1" gradientUnits="userSpaceOnUse" gradientTransform="translate(145.644 115.945) rotate(-90) scale(1.64156)">
<stop offset="0.25" stop-color="#D13200"/>
<stop offset="1" stop-color="#A12600" stop-opacity="0"/>
</radialGradient>
<radialGradient id="paint6_radial_2426_200" cx="0" cy="0" r="1" gradientUnits="userSpaceOnUse" gradientTransform="translate(136.268 81.1779) rotate(-90) scale(0.519632 0.519623)">
<stop offset="0.25" stop-color="#D13200"/>
<stop offset="1" stop-color="#A12600" stop-opacity="0"/>
</radialGradient>
<radialGradient id="paint7_radial_2426_200" cx="0" cy="0" r="1" gradientUnits="userSpaceOnUse" gradientTransform="translate(114.508 126.887) rotate(-90) scale(1.9309)">
<stop offset="0.25" stop-color="#D13200"/>
<stop offset="1" stop-color="#A12600" stop-opacity="0"/>
</radialGradient>
<radialGradient id="paint8_radial_2426_200" cx="0" cy="0" r="1" gradientUnits="userSpaceOnUse" gradientTransform="translate(117.148 111.954) rotate(-90) scale(1.61793 1.61794)">
<stop offset="0.25" stop-color="#D13200"/>
<stop offset="1" stop-color="#A12600" stop-opacity="0"/>
</radialGradient>
<radialGradient id="paint9_radial_2426_200" cx="0" cy="0" r="1" gradientUnits="userSpaceOnUse" gradientTransform="translate(136.185 88.2282) rotate(-90) scale(1.02744)">
<stop offset="0.25" stop-color="#D13200"/>
<stop offset="1" stop-color="#A12600" stop-opacity="0"/>
</radialGradient>
<radialGradient id="paint10_radial_2426_200" cx="0" cy="0" r="1" gradientUnits="userSpaceOnUse" gradientTransform="translate(127.02 155.26) rotate(-90) scale(1.07469 1.07468)">
<stop offset="0.25" stop-color="#D13200"/>
<stop offset="1" stop-color="#A12600" stop-opacity="0"/>
</radialGradient>
<radialGradient id="paint11_radial_2426_200" cx="0" cy="0" r="1" gradientUnits="userSpaceOnUse" gradientTransform="translate(127.552 72.1552) rotate(-90) scale(0.838492)">
<stop offset="0.25" stop-color="#D13200"/>
<stop offset="1" stop-color="#A12600" stop-opacity="0"/>
</radialGradient>
<radialGradient id="paint12_radial_2426_200" cx="0" cy="0" r="1" gradientUnits="userSpaceOnUse" gradientTransform="translate(120.106 139.453) rotate(-90) scale(1.76555 1.76556)">
<stop offset="0.25" stop-color="#D13200"/>
<stop offset="1" stop-color="#A12600" stop-opacity="0"/>
</radialGradient>
<radialGradient id="paint13_radial_2426_200" cx="0" cy="0" r="1" gradientUnits="userSpaceOnUse" gradientTransform="translate(135.973 117.871) rotate(-90) scale(3.99169)">
<stop offset="0.25" stop-color="#D13200"/>
<stop offset="1" stop-color="#A12600" stop-opacity="0"/>
</radialGradient>
<radialGradient id="paint14_radial_2426_200" cx="0" cy="0" r="1" gradientUnits="userSpaceOnUse" gradientTransform="translate(125.545 125.216) rotate(-90) scale(4.49952 4.49952)">
<stop offset="0.25" stop-color="#D13200"/>
<stop offset="1" stop-color="#A12600" stop-opacity="0"/>
</radialGradient>
<radialGradient id="paint15_radial_2426_200" cx="0" cy="0" r="1" gradientUnits="userSpaceOnUse" gradientTransform="translate(142.716 138.419) rotate(-90) scale(1.38174)">
<stop offset="0.25" stop-color="#D13200"/>
<stop offset="1" stop-color="#A12600" stop-opacity="0"/>
</radialGradient>
<radialGradient id="paint16_radial_2426_200" cx="0" cy="0" r="1" gradientUnits="userSpaceOnUse" gradientTransform="translate(126.69 109.722) rotate(-90) scale(2.95244)">
<stop offset="0.25" stop-color="#D13200"/>
<stop offset="1" stop-color="#A12600" stop-opacity="0"/>
</radialGradient>
<radialGradient id="paint17_radial_2426_200" cx="0" cy="0" r="1" gradientUnits="userSpaceOnUse" gradientTransform="translate(131.58 143.403) rotate(-90) scale(1.5825 1.58251)">
<stop offset="0.25" stop-color="#D13200"/>
<stop offset="1" stop-color="#A12600" stop-opacity="0"/>
</radialGradient>
<radialGradient id="paint18_radial_2426_200" cx="0" cy="0" r="1" gradientUnits="userSpaceOnUse" gradientTransform="translate(135.17 100.25) rotate(-90) scale(2.57453)">
<stop offset="0.25" stop-color="#D13200"/>
<stop offset="1" stop-color="#A12600" stop-opacity="0"/>
</radialGradient>
<radialGradient id="paint19_radial_2426_200" cx="0" cy="0" r="1" gradientUnits="userSpaceOnUse" gradientTransform="translate(126.726 91.7591) rotate(-90) scale(1.46441)">
<stop offset="0.25" stop-color="#D13200"/>
<stop offset="1" stop-color="#A12600" stop-opacity="0"/>
</radialGradient>
</defs>
</svg>
