<svg width="57" height="69" viewBox="0 0 57 69" fill="none" xmlns="http://www.w3.org/2000/svg">
<mask id="mask0_2602_982" style="mask-type:luminance" maskUnits="userSpaceOnUse" x="24" y="0" width="30" height="30">
<path d="M38.7025 0C46.7654 0 53.2966 6.50964 53.2966 14.5464C53.2966 22.583 46.7654 29.0928 38.7025 29.0928C30.6393 29.0928 24.1083 22.583 24.1083 14.5464C24.1083 6.50964 30.6393 0 38.7025 0Z" fill="white"/>
</mask>
<g mask="url(#mask0_2602_982)">
<path d="M53.2966 0H24.1083V29.0928H53.2966V0Z" fill="url(#paint0_linear_2602_982)"/>
</g>
<path d="M34.0895 23.8153C32.9158 23.9938 31.4108 24.4493 30.7121 25.4673C30.3895 25.9316 30.5239 26.2709 31.6258 25.9405C32.6293 25.6368 33.4893 24.6724 34.0895 23.8153ZM17.2556 15.5821C19.3072 15.1089 21.3588 16.3947 21.8246 18.4396C22.2995 20.4844 21.0094 22.5293 18.9578 22.9937C14.0214 24.1368 10.8679 26.7173 9.2015 29.9857C7.85773 32.6288 7.40076 35.7809 7.72333 39.0403C8.0548 42.4426 9.22848 45.9519 11.1098 49.1665C14.5142 54.9887 20.1941 59.7213 27.2897 60.8733C28.2573 61.034 29.2964 61.0251 30.3715 60.8733C34.2956 60.3286 38.5332 57.9355 42.045 54.435C45.6018 50.881 48.3254 46.2554 49.1316 41.3263C49.4183 39.5761 49.463 37.7901 49.2123 35.9952C48.5045 30.8876 45.8436 27.5301 42.6723 25.6459C42.4303 25.5029 42.1885 25.3691 41.9465 25.244C40.2264 29.3338 36.7325 32.9771 32.1364 33.6021C30.5956 33.8164 29.0904 33.6378 27.7735 33.1289C26.3131 32.5664 25.0858 31.6108 24.2256 30.3339C23.088 28.6373 22.64 26.4673 23.2312 24.0207C24.0197 20.7614 26.4027 18.4396 29.619 17.1717C31.2315 16.5376 33.0772 16.1715 35.0303 16.1091C34.421 14.5998 33.2922 13.0907 31.4735 11.7335L31.3929 11.6799C29.6996 10.4209 29.3502 8.03657 30.6135 6.34895C31.8767 4.66116 34.2686 4.31292 35.962 5.57195L36.0426 5.63458V5.65229C40.6386 9.09033 42.7259 13.3408 43.1381 17.4842C44.3116 17.9216 45.4674 18.4753 46.5782 19.136C51.5416 22.0919 55.6895 27.2443 56.7647 34.9684C57.123 37.5312 57.0603 40.085 56.6571 42.5675C55.5821 49.1576 52.0522 55.2297 47.4563 59.8195C42.8067 64.463 36.9922 67.6598 31.4197 68.4278C29.6101 68.6779 27.8094 68.6779 26.0622 68.3921C16.5121 66.8382 8.95969 60.6232 4.49805 52.9884C2.09706 48.8451 0.573986 44.2641 0.135111 39.7546C-0.321862 35.1113 0.368036 30.5303 2.39266 26.5566C5.04451 21.3506 9.87347 17.2878 17.2646 15.5732L17.2556 15.5821Z" fill="url(#paint1_linear_2602_982)"/>
<path d="M47.6264 30.9143C46.3991 28.5479 44.6342 26.8155 42.6632 25.6458C42.4212 25.5029 42.1794 25.3691 41.9374 25.244C42.8065 23.1991 43.1111 20.1004 43.1379 17.4663C44.3116 17.9039 45.4674 18.4574 46.5782 19.1182C48.7104 20.3862 50.6814 22.0561 52.3389 24.1635L47.6264 30.9143Z" fill="url(#paint2_linear_2602_982)"/>
<path fill-rule="evenodd" clip-rule="evenodd" d="M34.0895 23.8154C35.2183 22.1991 35.4423 19.288 35.0301 16.0912C33.0772 16.1626 31.2315 16.5199 29.619 17.1538C28.8843 17.4395 28.1944 17.7878 27.5494 18.1897C28.517 20.9758 29.2696 23.2796 30.5775 25.9318C30.5239 25.8245 30.5775 25.6548 30.7119 25.4584C31.4107 24.4404 32.9158 23.9939 34.0895 23.8064" fill="url(#paint3_linear_2602_982)"/>
<defs>
<linearGradient id="paint0_linear_2602_982" x1="38.7025" y1="0" x2="38.7025" y2="29.0928" gradientUnits="userSpaceOnUse">
<stop stop-color="#9BE96C"/>
<stop offset="1" stop-color="#9BE96C" stop-opacity="0"/>
</linearGradient>
<linearGradient id="paint1_linear_2602_982" x1="4.74991" y1="45.8268" x2="57" y2="45.8268" gradientUnits="userSpaceOnUse">
<stop stop-color="#FF8F4D"/>
<stop offset="1" stop-color="#582EFF"/>
</linearGradient>
<linearGradient id="paint2_linear_2602_982" x1="49.9072" y1="25.2126" x2="40.365" y2="19.2569" gradientUnits="userSpaceOnUse">
<stop stop-color="#350F9F" stop-opacity="0"/>
<stop offset="1" stop-color="#350F9F"/>
</linearGradient>
<linearGradient id="paint3_linear_2602_982" x1="35.4879" y1="18.7004" x2="31.4595" y2="19.9315" gradientUnits="userSpaceOnUse">
<stop stop-color="#843A9D"/>
<stop offset="1" stop-color="#B263A2"/>
</linearGradient>
</defs>
</svg>
