<svg width="680" height="194" viewBox="0 0 680 194" fill="none" xmlns="http://www.w3.org/2000/svg">
<path d="M141.401 158.295C134.946 158.295 129.126 157.023 123.942 154.48C118.856 151.937 114.845 147.975 111.911 142.596C109.075 137.118 107.656 130.223 107.656 121.909V77.4535H135.533V117.361C135.533 123.523 136.657 127.924 138.907 130.565C141.254 133.206 144.531 134.526 148.737 134.526C151.476 134.526 153.97 133.891 156.22 132.619C158.469 131.348 160.279 129.342 161.648 126.604C163.018 123.767 163.702 120.148 163.702 115.747V77.4535H191.578V156.974H165.023V134.526L170.158 140.835C167.419 146.704 163.458 151.105 158.274 154.04C153.09 156.876 147.466 158.295 141.401 158.295ZM206.6 156.974V77.4535H234.476V156.974H206.6ZM220.538 68.6505C215.452 68.6505 211.344 67.2322 208.214 64.3957C205.084 61.5592 203.519 58.038 203.519 53.8321C203.519 49.6262 205.084 46.105 208.214 43.2685C211.344 40.4319 215.452 39.0137 220.538 39.0137C225.624 39.0137 229.732 40.383 232.862 43.1217C235.992 45.7626 237.557 49.186 237.557 53.3919C237.557 57.7934 235.992 61.4614 232.862 64.3957C229.83 67.2322 225.722 68.6505 220.538 68.6505ZM290.298 158.295C281.495 158.295 273.621 156.534 266.677 153.013C259.83 149.492 254.45 144.65 250.538 138.488C246.626 132.228 244.669 125.088 244.669 117.067C244.669 109.047 246.626 101.955 250.538 95.7931C254.45 89.631 259.83 84.8383 266.677 81.4149C273.621 77.8937 281.495 76.1331 290.298 76.1331C299.297 76.1331 307.073 78.0404 313.626 81.855C320.18 85.6697 324.826 91.0493 327.564 97.9939L305.997 108.998C304.139 105.281 301.84 102.591 299.101 100.928C296.363 99.1676 293.379 98.2873 290.152 98.2873C286.924 98.2873 283.989 99.0209 281.349 100.488C278.708 101.955 276.605 104.107 275.04 106.944C273.573 109.682 272.839 113.057 272.839 117.067C272.839 121.175 273.573 124.647 275.04 127.484C276.605 130.321 278.708 132.472 281.349 133.94C283.989 135.407 286.924 136.14 290.152 136.14C293.379 136.14 296.363 135.309 299.101 133.646C301.84 131.886 304.139 129.147 305.997 125.43L327.564 136.434C324.826 143.378 320.18 148.758 313.626 152.573C307.073 156.387 299.297 158.295 290.298 158.295ZM347.338 186.758C343.132 186.758 338.877 186.073 334.574 184.704C330.368 183.432 326.944 181.72 324.303 179.569L333.987 160.055C335.65 161.522 337.557 162.647 339.709 163.43C341.958 164.31 344.159 164.75 346.311 164.75C349.343 164.75 351.739 164.065 353.5 162.696C355.261 161.327 356.777 159.175 358.048 156.241L361.716 146.997L363.917 144.21L390.913 77.4535H417.469L383.137 160.202C380.398 167.049 377.219 172.379 373.6 176.194C370.079 180.106 366.118 182.845 361.716 184.41C357.413 185.975 352.62 186.758 347.338 186.758ZM358.195 160.349L323.13 77.4535H351.739L377.562 141.716L358.195 160.349ZM423.061 156.974V54.2722H475.586C489.084 54.2722 499.158 56.7664 505.809 61.7548C512.461 66.6454 515.786 73.1009 515.786 81.1214C515.786 86.4032 514.368 91.0493 511.531 95.0596C508.793 98.972 504.88 102.102 499.794 104.449C494.806 106.699 488.839 107.824 481.895 107.824L484.829 100.782C492.067 100.782 498.376 101.906 503.755 104.156C509.135 106.308 513.292 109.487 516.226 113.693C519.259 117.801 520.775 122.838 520.775 128.804C520.775 137.705 517.156 144.65 509.918 149.638C502.777 154.529 492.312 156.974 478.52 156.974H423.061ZM451.818 135.994H476.173C481.161 135.994 484.927 135.162 487.47 133.499C490.111 131.739 491.431 129.098 491.431 125.577C491.431 122.055 490.111 119.463 487.47 117.801C484.927 116.04 481.161 115.16 476.173 115.16H449.764V95.0596H471.771C476.662 95.0596 480.33 94.2282 482.775 92.5654C485.22 90.9026 486.443 88.4084 486.443 85.0828C486.443 81.7572 485.22 79.3119 482.775 77.7469C480.33 76.0842 476.662 75.2528 471.771 75.2528H451.818V135.994ZM573.234 158.295C563.844 158.295 555.628 156.534 548.586 153.013C541.641 149.394 536.212 144.503 532.3 138.341C528.485 132.081 526.578 124.99 526.578 117.067C526.578 109.144 528.436 102.102 532.153 95.9399C535.968 89.6799 541.201 84.8383 547.852 81.4149C554.503 77.8937 561.986 76.1331 570.3 76.1331C578.125 76.1331 585.265 77.747 591.72 80.9747C598.176 84.1047 603.311 88.7507 607.126 94.9128C610.94 101.075 612.848 108.558 612.848 117.361C612.848 118.339 612.799 119.463 612.701 120.735C612.603 122.007 612.505 123.18 612.407 124.256H549.466V109.585H597.589L587.025 113.693C587.123 110.074 586.438 106.944 584.971 104.303C583.602 101.662 581.646 99.6078 579.103 98.1406C576.657 96.6734 573.772 95.9399 570.446 95.9399C567.121 95.9399 564.186 96.6734 561.643 98.1406C559.198 99.6078 557.291 101.711 555.921 104.449C554.552 107.09 553.867 110.22 553.867 113.839V118.094C553.867 122.007 554.65 125.381 556.215 128.218C557.878 131.054 560.225 133.255 563.257 134.82C566.289 136.287 569.908 137.021 574.114 137.021C578.027 137.021 581.352 136.483 584.091 135.407C586.928 134.233 589.715 132.472 592.454 130.125L607.126 145.383C603.311 149.589 598.616 152.817 593.041 155.067C587.466 157.219 580.863 158.295 573.234 158.295ZM658.271 158.295C648.099 158.295 640.176 155.8 634.503 150.812C628.83 145.726 625.994 138.097 625.994 127.924V59.7008H653.87V127.631C653.87 130.467 654.652 132.717 656.217 134.38C657.782 135.945 659.787 136.727 662.233 136.727C665.558 136.727 668.395 135.896 670.742 134.233L677.638 153.746C675.291 155.311 672.405 156.436 668.982 157.121C665.558 157.903 661.988 158.295 658.271 158.295ZM614.403 101.222V80.3879H672.063V101.222H614.403Z" fill="#FFCBFA"/>
<path fill-rule="evenodd" clip-rule="evenodd" d="M21.5443 54.3706H95.159V108.305H95.1541C94.9367 124.896 87.5212 138.889 77.8458 147.268C68.494 155.365 55.8504 158.507 45.3492 158.507C34.2761 158.507 23.2358 153.96 15.2321 149.573C7.27601 145.212 0 139.775 0 139.775L22.7092 115.824C24.7334 117.372 27.292 119.062 30.1171 120.611C36.2385 123.966 41.5537 125.538 44.6058 125.538C46.7429 125.538 51.1981 124.325 55.0422 120.996C58.4171 118.074 60.9608 113.865 60.9612 107.557V98.2956L60.9612 87.3391H21.5443V54.3706Z" fill="#A56CFF"/>
<path fill-rule="evenodd" clip-rule="evenodd" d="M43.0908 47.1373C44.0504 21.2196 65.128 0.506348 90.9889 0.506348C95.548 0.506348 99.9585 1.15009 104.136 2.35261C103.177 28.2703 82.0991 48.9836 56.2381 48.9836C51.6791 48.9836 47.2685 48.3398 43.0908 47.1373Z" fill="#A56CFF"/>
<path fill-rule="evenodd" clip-rule="evenodd" d="M64.6367 47.6162C63.9311 28.4179 48.4329 13.0747 29.4175 13.0747C26.0653 13.0747 22.8222 13.5516 19.7504 14.4423C20.456 33.6406 35.9542 48.9838 54.9696 48.9838C58.3218 48.9838 61.5649 48.5069 64.6367 47.6162Z" fill="#A56CFF" fill-opacity="0.5"/>
</svg>
