<svg width="91" height="90" viewBox="0 0 91 90" fill="none" xmlns="http://www.w3.org/2000/svg">
<rect x="9.5437" y="9.00195" width="72" height="72" rx="7" fill="#FF7269" fill-opacity="0.2"/>
<path d="M51.2814 39.3512C51.2814 42.8758 48.4716 45.7019 44.9675 45.7019C41.4633 45.7019 38.6536 42.8758 38.6536 39.3512C38.6536 35.8254 41.4633 33.002 44.9675 33.002C48.4716 33.002 51.2814 35.8254 51.2814 39.3512Z" fill="#F83327"/>
<path d="M44.9675 57.002C39.8207 57.002 35.4261 56.186 35.4261 52.9222C35.4261 49.6571 39.7925 48.8114 44.9675 48.8114C50.1143 48.8114 54.5089 49.6273 54.5089 52.8925C54.5089 56.1563 50.1425 57.002 44.9675 57.002Z" fill="#F83327"/>
<path d="M53.9796 39.4658C53.9796 41.2625 53.4437 42.9363 52.5035 44.3277C52.4068 44.4709 52.4928 44.6641 52.6633 44.6938C52.8984 44.7343 53.1415 44.7573 53.3886 44.7641C55.8532 44.8289 58.0653 43.2335 58.6764 40.8316C59.5817 37.2638 56.9237 34.0608 53.539 34.0608C53.171 34.0608 52.8191 34.1 52.4767 34.1702C52.4296 34.181 52.3799 34.2026 52.3531 34.2445C52.3209 34.2959 52.345 34.3648 52.3773 34.4093C53.394 35.8426 53.9796 37.5907 53.9796 39.4658Z" fill="#F83327"/>
<path d="M58.0613 47.2708C59.7173 47.5964 60.8066 48.261 61.2579 49.2269C61.6393 50.0199 61.6393 50.9399 61.2579 51.7315C60.5675 53.2297 58.342 53.7106 57.477 53.8349C57.2984 53.8619 57.1547 53.7065 57.1735 53.5269C57.6154 49.3755 54.1005 47.4072 53.1912 46.9547C53.1522 46.9344 53.1442 46.9034 53.1482 46.8844C53.1509 46.8709 53.167 46.8493 53.1966 46.8453C55.1642 46.8088 57.2796 47.079 58.0613 47.2708Z" fill="#F83327"/>
<path d="M36.6996 44.7639C36.9467 44.7572 37.1885 44.7356 37.4249 44.6937C37.5955 44.664 37.6814 44.4708 37.5847 44.3276C36.6445 42.9361 36.1086 41.2624 36.1086 39.4657C36.1086 37.5906 36.6942 35.8425 37.711 34.4092C37.7432 34.3646 37.766 34.2957 37.7351 34.2444C37.7083 34.2039 37.6572 34.1809 37.6116 34.1701C37.2677 34.0998 36.9158 34.0607 36.5478 34.0607C33.1632 34.0607 30.5052 37.2637 31.4118 40.8314C32.0229 43.2333 34.235 44.8288 36.6996 44.7639Z" fill="#F83327"/>
<path d="M36.9394 46.8836C36.9434 46.9039 36.9353 46.9336 36.8977 46.9552C35.9871 47.4078 32.4722 49.3761 32.9141 53.5261C32.9329 53.7071 32.7905 53.8611 32.6119 53.8354C31.7469 53.7111 29.5214 53.2302 28.831 51.7321C28.4482 50.9391 28.4482 50.0204 28.831 49.2275C29.2823 48.2616 30.3702 47.5969 32.0263 47.27C32.8093 47.0795 34.9234 46.8093 36.8923 46.8458C36.9219 46.8499 36.9367 46.8715 36.9394 46.8836Z" fill="#F83327"/>
<path d="M67.5439 1.00195H82.5439C86.4099 1.00195 89.5439 4.13596 89.5439 8.00195V23.002" stroke="#FF0F00" stroke-width="2" stroke-linecap="round"/>
<path d="M67.5439 89.002H82.5439C86.4099 89.002 89.5439 85.8679 89.5439 82.002V67.002" stroke="#FF0F00" stroke-width="2" stroke-linecap="round"/>
<path d="M23.5439 1.00195H8.54395C4.67795 1.00195 1.54395 4.13596 1.54395 8.00195V23.002" stroke="#FF0F00" stroke-width="2" stroke-linecap="round"/>
<path d="M23.5439 89.002H8.54395C4.67795 89.002 1.54395 85.8679 1.54395 82.002V67.002" stroke="#FF0F00" stroke-width="2" stroke-linecap="round"/>
</svg>
