<svg width="91" height="90" viewBox="0 0 91 90" fill="none" xmlns="http://www.w3.org/2000/svg">
<rect x="9.54395" y="9.00195" width="72" height="72" rx="7" fill="#61FDB2" fill-opacity="0.2"/>
<path d="M64.5439 45.002C64.5439 42.1936 63.4233 39.5003 61.4286 37.5145C59.4339 35.5287 56.7285 34.4131 53.9076 34.4131C49.2985 34.4131 45.4871 38.0309 43.3599 44.4725C41.7644 49.3258 39.1053 52.0612 36.1803 52.0612C34.2997 52.0612 32.4961 51.3175 31.1663 49.9936C29.8365 48.6697 29.0894 46.8742 29.0894 45.002C29.0894 43.1297 29.8365 41.3342 31.1663 40.0103C32.4961 38.6864 34.2997 37.9427 36.1803 37.9427H37.2439L35.8258 39.3545C35.6331 39.5243 35.482 39.7358 35.3842 39.9728C35.2865 40.2097 35.2445 40.4659 35.2616 40.7215C35.2787 40.9771 35.3545 41.2254 35.483 41.4473C35.6115 41.6693 35.7894 41.8589 36.003 42.0018C36.3588 42.2581 36.7941 42.381 37.232 42.3487C37.67 42.3164 38.0823 42.131 38.3962 41.8253L42.7394 37.4132C42.9113 37.2562 43.0486 37.0653 43.1425 36.8526C43.2364 36.6399 43.2849 36.4102 43.2849 36.1779C43.2849 35.9456 43.2364 35.7158 43.1425 35.5031C43.0486 35.2905 42.9113 35.0996 42.7394 34.9425L38.3962 30.5305C38.0823 30.2247 37.67 30.0393 37.232 30.007C36.7941 29.9747 36.3588 30.0976 36.003 30.354C35.7894 30.4968 35.6115 30.6865 35.483 30.9084C35.3545 31.1303 35.2787 31.3786 35.2616 31.6343C35.2445 31.8899 35.2865 32.146 35.3842 32.3829C35.482 32.6199 35.6331 32.8314 35.8258 33.0012L37.2439 34.4131H36.1803C33.3594 34.4131 30.654 35.5287 28.6593 37.5145C26.6646 39.5003 25.5439 42.1936 25.5439 45.002C25.5439 47.8103 26.6646 50.5036 28.6593 52.4894C30.654 54.4752 33.3594 55.5909 36.1803 55.5909C40.7894 55.5909 44.6008 51.973 46.728 45.5314C48.3235 40.6782 50.9826 37.9427 53.9076 37.9427C55.7882 37.9427 57.5918 38.6864 58.9216 40.0103C60.2514 41.3342 60.9985 43.1297 60.9985 45.002C60.9985 46.8742 60.2514 48.6697 58.9216 49.9936C57.5918 51.3175 55.7882 52.0612 53.9076 52.0612H52.8439L54.2621 50.6494C54.4548 50.4796 54.6059 50.2681 54.7036 50.0311C54.8014 49.7942 54.8434 49.538 54.8263 49.2824C54.8092 49.0268 54.7334 48.7785 54.6049 48.5566C54.4764 48.3346 54.2985 48.145 54.0849 48.0021C53.7291 47.7458 53.2938 47.6229 52.8559 47.6552C52.4179 47.6875 52.0056 47.8729 51.6917 48.1786L47.3485 52.5907C47.1765 52.7477 47.0393 52.9386 46.9454 53.1513C46.8514 53.364 46.803 53.5937 46.803 53.826C46.803 54.0583 46.8514 54.2881 46.9454 54.5008C47.0393 54.7134 47.1765 54.9044 47.3485 55.0614L51.6917 59.4735C52.0056 59.7792 52.4179 59.9646 52.8559 59.9969C53.2938 60.0292 53.7291 59.9063 54.0849 59.6499C54.2985 59.5071 54.4764 59.3174 54.6049 59.0955C54.7334 58.8736 54.8092 58.6253 54.8263 58.3696C54.8434 58.114 54.8014 57.8579 54.7036 57.621C54.6059 57.384 54.4548 57.1725 54.2621 57.0027L52.8439 55.5909H53.9076C56.7285 55.5909 59.4339 54.4752 61.4286 52.4894C63.4233 50.5036 64.5439 47.8103 64.5439 45.002Z" fill="#61FDB2"/>
<path d="M67.5442 1.00195H82.5442C86.4102 1.00195 89.5442 4.13596 89.5442 8.00195V23.002" stroke="#61FDB2" stroke-width="2" stroke-linecap="round"/>
<path d="M67.5442 89.002H82.5442C86.4102 89.002 89.5442 85.8679 89.5442 82.002V67.002" stroke="#61FDB2" stroke-width="2" stroke-linecap="round"/>
<path d="M23.5442 1.00195H8.54419C4.6782 1.00195 1.54419 4.13596 1.54419 8.00195V23.002" stroke="#61FDB2" stroke-width="2" stroke-linecap="round"/>
<path d="M23.5442 89.002H8.54419C4.6782 89.002 1.54419 85.8679 1.54419 82.002V67.002" stroke="#61FDB2" stroke-width="2" stroke-linecap="round"/>
</svg>
