<svg width="91" height="90" viewBox="0 0 91 90" fill="none" xmlns="http://www.w3.org/2000/svg">
<rect x="9.5437" y="9.00195" width="72" height="72" rx="7" fill="#FFA261" fill-opacity="0.2"/>
<path d="M45.5825 28.3479C45.846 28.1114 46.1945 27.9874 46.5513 28.0033C54.0931 28.2291 60.3962 33.704 61.5385 41.0215C61.5458 41.0652 61.5458 41.1097 61.5385 41.1534C61.5631 41.4997 61.4461 41.8412 61.2133 42.1026C60.9806 42.364 60.6513 42.5236 60.2983 42.5461L47.6271 43.3818C47.2081 43.4189 46.7925 43.281 46.4825 43.002C46.1725 42.7229 45.9967 42.3285 45.9984 41.9158L45.1467 29.4693V29.2641C45.1622 28.914 45.319 28.5844 45.5825 28.3479Z" fill="#FF842F"/>
<path d="M44.7134 46.6363L55.696 45.9326L55.7707 45.9619C56.2424 45.9697 56.6915 46.1609 57.0194 46.4936C57.3473 46.8263 57.527 47.2731 57.519 47.7358C57.0862 54.0423 52.4626 59.3115 46.1705 60.669C39.8784 62.0265 33.4282 59.1464 30.3388 53.5999C29.4304 52.0024 28.8563 50.2429 28.6503 48.4248C28.5704 47.8861 28.5354 47.3419 28.5457 46.7976C28.5665 40.0916 33.341 34.3034 40.0215 32.8851C40.8302 32.7338 41.641 33.1375 41.9939 33.8674C42.0817 33.9998 42.152 34.1427 42.203 34.2925C42.3283 36.2256 42.4582 38.1405 42.5875 40.0472C42.6897 41.553 42.7915 43.0538 42.8904 44.5546C42.8853 44.9081 42.9409 45.26 43.0548 45.5954C43.3229 46.2555 43.9902 46.6742 44.7134 46.6363Z" fill="#FF842F"/>
<path d="M67.5439 1.00195H82.5439C86.4099 1.00195 89.5439 4.13596 89.5439 8.00195V23.002" stroke="#FF6900" stroke-width="2" stroke-linecap="round"/>
<path d="M67.5439 89.002H82.5439C86.4099 89.002 89.5439 85.8679 89.5439 82.002V67.002" stroke="#FF6900" stroke-width="2" stroke-linecap="round"/>
<path d="M23.5439 1.00195H8.54395C4.67795 1.00195 1.54395 4.13596 1.54395 8.00195V23.002" stroke="#FF6900" stroke-width="2" stroke-linecap="round"/>
<path d="M23.5439 89.002H8.54395C4.67795 89.002 1.54395 85.8679 1.54395 82.002V67.002" stroke="#FF6900" stroke-width="2" stroke-linecap="round"/>
</svg>
