<svg width="91" height="90" viewBox="0 0 91 90" fill="none" xmlns="http://www.w3.org/2000/svg">
<rect x="9.5437" y="9.00195" width="72" height="72" rx="7" fill="#BF3DE5" fill-opacity="0.2"/>
<path fill-rule="evenodd" clip-rule="evenodd" d="M57.1854 45.503C57.1854 46.7232 58.1874 47.716 59.4189 47.716C60.0399 47.716 60.5439 48.2154 60.5439 48.8308V52.8452C60.5439 56.2399 57.7569 59.0015 54.3309 59.0015H36.7584C33.3324 59.0015 30.5439 56.2399 30.5439 52.8452V48.8308C30.5439 48.2154 31.0479 47.716 31.6689 47.716C32.9019 47.716 33.9039 46.7232 33.9039 45.503C33.9039 44.3139 32.9424 43.4192 31.6689 43.4192C31.3704 43.4192 31.0854 43.3018 30.8739 43.0922C30.6624 42.8826 30.5439 42.5987 30.5439 42.3044L30.5469 38.1592C30.5469 34.7645 33.3339 32.0015 36.7599 32.0015H54.3279C57.7539 32.0015 60.5424 34.7645 60.5424 38.1592L60.5439 42.1751C60.5439 42.4694 60.4254 42.7548 60.2154 42.9629C60.0039 43.1724 59.7189 43.2899 59.4189 43.2899C58.1874 43.2899 57.1854 44.2827 57.1854 45.503ZM48.9219 46.4735L50.6904 44.7672C50.9979 44.4729 51.1044 44.039 50.9709 43.6377C50.8389 43.2364 50.4939 42.951 50.0769 42.893L47.6334 42.5393L46.5399 40.3455C46.3524 39.968 45.9714 39.7332 45.5469 39.7317H45.5439C45.1209 39.7317 44.7399 39.9665 44.5494 40.344L43.4559 42.5393L41.0169 42.8915C40.5954 42.951 40.2504 43.2364 40.1169 43.6377C39.9849 44.039 40.0914 44.4729 40.3974 44.7672L42.1659 46.4735L41.7489 48.8858C41.6769 49.3019 41.8464 49.7151 42.1914 49.9633C42.3864 50.1015 42.6129 50.1729 42.8424 50.1729C43.0179 50.1729 43.1949 50.1298 43.3569 50.0451L45.5439 48.9066L47.7264 50.0421C48.1044 50.2427 48.5529 50.2115 48.8964 49.9618C49.2429 49.7151 49.4124 49.3019 49.3404 48.8858L48.9219 46.4735Z" fill="#BF3DE5"/>
<path d="M67.5439 1.00195H82.5439C86.4099 1.00195 89.5439 4.13596 89.5439 8.00195V23.002" stroke="#BF3DE5" stroke-width="2" stroke-linecap="round"/>
<path d="M67.5439 89.002H82.5439C86.4099 89.002 89.5439 85.8679 89.5439 82.002V67.002" stroke="#BF3DE5" stroke-width="2" stroke-linecap="round"/>
<path d="M23.5439 1.00195H8.54395C4.67795 1.00195 1.54395 4.13596 1.54395 8.00195V23.002" stroke="#BF3DE5" stroke-width="2" stroke-linecap="round"/>
<path d="M23.5439 89.002H8.54395C4.67795 89.002 1.54395 85.8679 1.54395 82.002V67.002" stroke="#BF3DE5" stroke-width="2" stroke-linecap="round"/>
</svg>
