<svg width="150" height="45" viewBox="0 0 150 45" fill="none" xmlns="http://www.w3.org/2000/svg">
<path d="M0.33316 10.38V0H35.4932V10.38H23.7332V42H12.0932V10.38H0.33316Z" fill="white"/>
<path d="M50.1238 23.46H62.0638L74.6638 42H61.1038L50.1238 23.46ZM38.7238 0H50.3638V42H38.7238V0ZM46.1638 9.84V0H55.2238C59.0638 0 62.2238 0.600001 64.7038 1.8C67.2238 3 69.0838 4.66 70.2838 6.78C71.5238 8.86 72.1438 11.28 72.1438 14.04C72.1438 16.76 71.5238 19.2 70.2838 21.36C69.0838 23.48 67.2238 25.14 64.7038 26.34C62.2238 27.5 59.0638 28.08 55.2238 28.08H46.1638V19.26H54.2638C55.5038 19.26 56.5438 19.08 57.3838 18.72C58.2238 18.36 58.8638 17.82 59.3038 17.1C59.7838 16.38 60.0238 15.52 60.0238 14.52C60.0238 13.52 59.7838 12.68 59.3038 12C58.8638 11.28 58.2238 10.74 57.3838 10.38C56.5438 10.02 55.5038 9.84 54.2638 9.84H46.1638Z" fill="white"/>
<path d="M77.5949 0H89.2349V27.24C89.2349 29.16 89.7349 30.72 90.7349 31.92C91.7349 33.08 93.2349 33.66 95.2349 33.66C97.2749 33.66 98.7949 33.08 99.7949 31.92C100.795 30.72 101.295 29.16 101.295 27.24V0H112.935V28.2C112.935 31.04 112.475 33.46 111.555 35.46C110.635 37.46 109.355 39.1 107.715 40.38C106.075 41.62 104.195 42.54 102.075 43.14C99.9549 43.74 97.6749 44.04 95.2349 44.04C92.8349 44.04 90.5549 43.74 88.3949 43.14C86.2749 42.54 84.3949 41.62 82.7549 40.38C81.1549 39.1 79.8949 37.46 78.9749 35.46C78.0549 33.46 77.5949 31.04 77.5949 28.2V0Z" fill="white"/>
<path d="M127.974 42V32.58H149.154V42H127.974ZM127.974 9.42V0H149.154V9.42H127.974ZM127.974 24.72V15.6H147.954V24.72H127.974ZM120.054 0H131.214V42H120.054V0Z" fill="white"/>
</svg>
